<?xml version="1.0" encoding="UTF-8" standalone="no"?>
<svg
   height="558px"
   width="684px"
   viewBox="0 0 21590 27940"
   version="1.1"
   id="svg199630"
   sodipodi:docname="Call_stack_layout.svg"
   inkscape:version="1.1.1 (3bf5ae0d25, 2021-09-20)"
   xmlns:inkscape="http://www.inkscape.org/namespaces/inkscape"
   xmlns:sodipodi="http://sodipodi.sourceforge.net/DTD/sodipodi-0.dtd"
   xmlns="http://www.w3.org/2000/svg"
   xmlns:svg="http://www.w3.org/2000/svg">
  <sodipodi:namedview
     id="namedview199632"
     pagecolor="#ffffff"
     bordercolor="#666666"
     borderopacity="1.0"
     inkscape:pageshadow="2"
     inkscape:pageopacity="0.0"
     inkscape:pagecheckerboard="0"
     showgrid="false"
     inkscape:zoom="1.4142136"
     inkscape:cx="144.24978"
     inkscape:cy="279.30718"
     inkscape:window-width="2240"
     inkscape:window-height="1366"
     inkscape:window-x="-11"
     inkscape:window-y="-11"
     inkscape:window-maximized="1"
     inkscape:current-layer="svg199630" />
  <defs
     id="defs199540">
    <linearGradient
       id="a"
       gradientUnits="userSpaceOnUse"
       x2="0"
       y2="24400"
       y1="26700">
      <stop
         stop-color="#fff"
         offset="0"
         id="stop199535" />
      <stop
         stop-color="#adf"
         offset="1"
         id="stop199537" />
    </linearGradient>
  </defs>
  <g
     stroke="#000"
     stroke-width="61"
     id="g199572">
    <g
       fill="#afc"
       id="g199550">
      <path
         d="m6370 8620v-6430h12300v6430"
         id="path199544" />
      <path
         d="m6370 10400v-1760h12300v1760"
         id="path199546" />
      <path
         d="m6370 14500v-4090h12300v4090"
         id="path199548" />
    </g>
    <path
       d="m6370 26700v-2340h12300v2340"
       fill="url(#a)"
       id="path199552" />
    <g
       fill="#adf"
       id="g199560">
      <path
         d="m6370 19700v-1760h12300v1760"
         id="path199554" />
      <path
         d="m18670 19700v4720h-12300v-4720z"
         id="path199556" />
      <path
         d="m6370 17900v-3510h12300v3510"
         id="path199558" />
    </g>
    <g
       fill="none"
       id="g199566">
      <path
         d="m5780 24400-120-9.5-111-47-98-75.9-85-107-73-120-50.6-139-37.9-155-12.6-174v-3310l-9.5-168-34.8-161-53.7-133-66-120-88-101-95-82-111-47-123-15.8 123-9.5 111-50.6 95-69 89-111 66-123 53.7-133 34.8-158 9.5-174v-3300l12.6-171 37.9-161 50.6-133 73-120 85-98 98-85 111-47 120-12.6"
         id="path199562" />
      <path
         d="m19200 2190 120 22 111 63 98 85 85 133 73 145 50.6 183 37.9 180 9.5 209v4090l9.5 205 41 196 47 171 75.9 145 82 133 95 85 111 60 126 25.3-126 25.3-111 60-95 85-82 133-75.9 145-47 180-41 183-9.5 209v4080l-9.5 209-37.9 196-50.6 168-73 149-85 133-98 85-111 63-120 22"
         id="path199564" />
    </g>
    <path
       d="m1810 2190h3470"
       id="path199568" />
    <path
       d="m1850 8640h3470"
       id="path199570" />
  </g>
  <path
     d="m12400 26000h188v202h-188v-202m0-582h188v202h-188v-202m0-585h188v202h-188v-202"
     id="path199574" />
  <path
     d="m5030 2570 752-389-752-376 231 376-231 389"
     id="path199576" />
  <path
     d="m5070 9040 752-389-752-376 231 376-231 389"
     id="path199578" />
  <g
     style="font-family:Arial,sans-serif;text-align:center;text-anchor:middle;font-size:1200px"
     id="g199628">
    <g
       font-size="1380px"
       id="g199600">
      <text
         y="21607"
         x="12468"
         id="text199580">foo 函数的</text>
      <text
         y="23238"
         x="12501"
         id="text199582">参数</text>
      <text
         y="15768"
         x="12455"
         id="text199584">foo 函数的</text>
      <text
         y="17399"
         x="12501"
         id="text199586">局部变量</text>
      <text
         y="19211"
         x="12498"
         id="text199588">返回地址</text>
      <text
         y="11972"
         x="12468"
         id="text199590">bar 函数的</text>
      <text
         y="13606"
         x="12500"
         id="text199592">参数</text>
      <text
         y="4974"
         x="12455"
         id="text199594">bar 函数</text>
      <text
         y="6602"
         x="12500"
         id="text199596">局部变量</text>
      <text
         y="9870"
         x="12498"
         id="text199598">返回地址</text>
    </g>
    <text
       y="17447"
       x="3865"
       id="text199620" />
    <text
       y="8919"
       x="-2242"
       id="text199622">Frame 指针</text>
    <text
       y="2468"
       x="-2081"
       id="text199624">栈指针</text>
    <text
       y="1860"
       x="12453"
       id="text199626">栈顶</text>
    <text
       xml:space="preserve"
       style="font-style:normal;font-weight:normal;font-size:2002.87px;line-height:1.25;font-family:sans-serif;fill:#000000;fill-opacity:1;stroke:none;stroke-width:50.0717"
       x="8.1630182"
       y="18836.008"
       id="text342667"><tspan
         sodipodi:role="line"
         id="tspan342665"
         style="stroke-width:50.0717"
         x="8.1630211"
         y="18836.008">foo's</tspan><tspan
         sodipodi:role="line"
         style="stroke-width:50.0717"
         x="8.1630182"
         y="21339.596"
         id="tspan343227" /></text>
    <text
       xml:space="preserve"
       style="font-style:normal;font-weight:normal;font-size:2002.87px;line-height:1.25;font-family:sans-serif;fill:#000000;fill-opacity:1;stroke:none;stroke-width:50.0717"
       x="24119.67"
       y="6656.3335"
       id="text371021"><tspan
         sodipodi:role="line"
         id="tspan371019"
         style="stroke-width:50.0717"
         x="24119.67"
         y="6656.3335">bar's</tspan></text>
    <text
       xml:space="preserve"
       style="font-style:normal;font-weight:normal;font-size:2002.87px;line-height:1.25;font-family:sans-serif;fill:#000000;fill-opacity:1;stroke:none;stroke-width:50.0717"
       x="24190.482"
       y="8816.1006"
       id="text377049"><tspan
         sodipodi:role="line"
         id="tspan377047"
         style="stroke-width:50.0717"
         x="24190.482"
         y="8816.1006">stack</tspan></text>
    <text
       xml:space="preserve"
       style="font-style:normal;font-weight:normal;font-size:2002.87px;line-height:1.25;font-family:sans-serif;fill:#000000;fill-opacity:1;stroke:none;stroke-width:50.0717"
       x="21676.652"
       y="10657.215"
       id="text381878"><tspan
         sodipodi:role="line"
         id="tspan381876"
         style="stroke-width:50.0717"></tspan></text>
  </g>
  <text
     xml:space="preserve"
     style="font-style:normal;font-weight:normal;font-size:2002.87px;line-height:1.25;font-family:sans-serif;fill:#000000;fill-opacity:1;stroke:none;stroke-width:50.0717"
     x="-6506.5464"
     y="21349.836"
     id="text352273"><tspan
       sodipodi:role="line"
       id="tspan352271"
       style="stroke-width:50.0717"
       x="-6506.5464"
       y="21349.836">stack frame</tspan></text>
  <text
     xml:space="preserve"
     style="font-style:normal;font-weight:normal;font-size:2002.87px;line-height:1.25;font-family:sans-serif;fill:#000000;fill-opacity:1;stroke:none;stroke-width:50.0717"
     x="21959.9"
     y="11188.305"
     id="text385616"><tspan
       sodipodi:role="line"
       id="tspan385614"
       style="stroke-width:50.0717"></tspan></text>
  <text
     xml:space="preserve"
     style="font-style:normal;font-weight:normal;font-size:2002.87px;line-height:1.25;font-family:sans-serif;fill:#000000;fill-opacity:1;stroke:none;stroke-width:50.0717"
     x="21712.059"
     y="11294.522"
     id="text391410"><tspan
       sodipodi:role="line"
       id="tspan391408"
       style="stroke-width:50.0717"
       x="21712.059"
       y="11294.522">frame</tspan></text>
</svg>
